<?xml version="1.0" encoding="utf-8"?>
<!-- Uploaded to: SVG Repo, www.svgrepo.com, Generator: SVG Repo Mixer Tools -->
<svg width="800px" height="800px" viewBox="0 -0.41 66.61 66.61" xmlns="http://www.w3.org/2000/svg">
<defs>
<style>.cls-1{fill:#42e5ba;}.cls-2,.cls-3{fill:none;stroke:#000000;stroke-linecap:round;}.cls-2{stroke-linejoin:bevel;}.cls-3{stroke-linejoin:round;}</style>
</defs>
<title>teamshape_iconsset_v1</title>
<g id="Layer_1" data-name="Layer 1">
<path class="cls-1" d="M45.49,24.17,33.89,38.43l-.29,0c-.06.07-.24.14-.31.21-1.3,1.23-3.44.77-4.68-.53-.23-.24-.06-.86-.2-1.14,0,0-.16.65-.15.68a45.23,45.23,0,0,0,2.79,4.22,3.25,3.25,0,0,0,4.6.11,1.81,1.81,0,0,0,.18-.21l0,0L47.46,27.47A14.07,14.07,0,0,0,45.49,24.17Z"/>
<path class="cls-2" d="M45.49,24.17a18.25,18.25,0,1,1-13.83-6.33"/>
<line class="cls-2" x1="25.62" y1="11.45" x2="37.68" y2="11.45"/>
<line class="cls-2" x1="31.65" y1="11.45" x2="31.65" y2="20.61"/>
<line class="cls-2" x1="31.65" y1="51.88" x2="31.65" y2="54.34"/>
<line class="cls-2" x1="49.91" y1="36.09" x2="47.46" y2="36.09"/>
<line class="cls-2" x1="15.87" y1="36.09" x2="13.42" y2="36.09"/>
<line class="cls-2" x1="15.49" y1="18.66" x2="10.71" y2="24.74"/>
<path class="cls-3" d="M34.09,38.24,49.88,18.75,29.62,33.53v0c-.07.06-.15.11-.21.17a3.25,3.25,0,1,0,4.47,4.71,1.81,1.81,0,0,0,.18-.21Z"/>
</g>
</svg>